<svg xmlns="http://www.w3.org/2000/svg" xmlns:xlink="http://www.w3.org/1999/xlink" width="1080" zoomAndPan="magnify" viewBox="0 0 810 809.999993" height="1080" preserveAspectRatio="xMidYMid meet" version="1.0"><defs><filter x="0%" y="0%" width="100%" height="100%" id="94173a701d"><feColorMatrix values="0 0 0 0 1 0 0 0 0 1 0 0 0 0 1 0 0 0 1 0" color-interpolation-filters="sRGB"/></filter><clipPath id="232489c3b5"><path d="M 506 590 L 810 590 L 810 759.375 L 506 759.375 Z M 506 590 " clip-rule="nonzero"/></clipPath><clipPath id="f3a7bad732"><path d="M 504 624 L 630 624 L 630 759.375 L 504 759.375 Z M 504 624 " clip-rule="nonzero"/></clipPath><mask id="ec0ab53efa"><g filter="url(#94173a701d)"><rect x="-81" width="972" fill="#000000" y="-80.999999" height="971.999992" fill-opacity="0.1"/></g></mask><clipPath id="fae2d5b5ac"><path d="M 2 1 L 125.761719 1 L 125.761719 135.375 L 2 135.375 Z M 2 1 " clip-rule="nonzero"/></clipPath><clipPath id="1b2831a1b5"><rect x="0" width="126" y="0" height="136"/></clipPath><mask id="1fcafbf08d"><g filter="url(#94173a701d)"><rect x="-81" width="972" fill="#000000" y="-80.999999" height="971.999992" fill-opacity="0.1"/></g></mask><clipPath id="c08d7ff411"><rect x="0" width="86" y="0" height="150"/></clipPath><mask id="473fde92c3"><g filter="url(#94173a701d)"><rect x="-81" width="972" fill="#000000" y="-80.999999" height="971.999992" fill-opacity="0.1"/></g></mask><clipPath id="692a4f48c6"><path d="M 2 0.839844 L 197 0.839844 L 197 155 L 2 155 Z M 2 0.839844 " clip-rule="nonzero"/></clipPath><clipPath id="5f096a614d"><rect x="0" width="197" y="0" height="157"/></clipPath><clipPath id="634613020f"><path d="M 188 50.625 L 675 50.625 L 675 759.375 L 188 759.375 Z M 188 50.625 " clip-rule="nonzero"/></clipPath></defs><g clip-path="url(#232489c3b5)"><path fill="#ffffff" d="M 506.988281 649.660156 L 809.984375 590.609375 L 641.234375 759.363281 L 506.246094 759.363281 Z M 506.988281 649.660156 " fill-opacity="1" fill-rule="nonzero"/></g><path fill="#f0f0f0" d="M 438.863281 83.4375 L 534.425781 378.625 L 282.347656 673.9375 L 216.96875 489.363281 Z M 438.863281 83.4375 " fill-opacity="1" fill-rule="nonzero"/><path fill="#ffffff" d="M 135 185.625 L 371.257812 673.9375 L 188.023438 691.855469 C 188.023438 691.855469 112.757812 318.855469 97.601562 263.265625 Z M 135 185.625 " fill-opacity="1" fill-rule="nonzero"/><g clip-path="url(#f3a7bad732)"><g mask="url(#ec0ab53efa)"><g transform="matrix(1, 0, 0, 1, 504, 624)"><g clip-path="url(#1b2831a1b5)"><g clip-path="url(#fae2d5b5ac)"><path fill="#ffffff" d="M 125.269531 1.835938 L 79.8125 135.363281 L 2.246094 135.363281 L 2.988281 25.660156 Z M 125.269531 1.835938 " fill-opacity="1" fill-rule="nonzero"/></g></g></g></g></g><g mask="url(#1fcafbf08d)"><g transform="matrix(1, 0, 0, 1, 101, 219)"><g clip-path="url(#c08d7ff411)"><path fill="#ffffff" d="M 84.621094 71.257812 L 20.011719 148.105469 C 13.730469 118.914062 5.277344 80.15625 1.222656 62.878906 L 50.6875 1.082031 Z M 84.621094 71.257812 " fill-opacity="1" fill-rule="nonzero"/></g></g></g><g mask="url(#473fde92c3)"><g transform="matrix(1, 0, 0, 1, 175, 537)"><g clip-path="url(#5f096a614d)"><g clip-path="url(#692a4f48c6)"><path fill="#ffffff" d="M 2.171875 101.316406 L 130.484375 0.960938 L 196.257812 136.9375 L 13.023438 154.855469 Z M 2.171875 101.316406 " fill-opacity="1" fill-rule="nonzero"/></g></g></g></g><g clip-path="url(#634613020f)"><path fill="#ffffff" d="M 675 50.636719 L 674.679688 557.214844 L 539.988281 759.363281 L 261.683594 759.363281 L 188.019531 691.855469 C 188.023438 691.855469 669.734375 61.167969 675 50.636719 Z M 675 50.636719 " fill-opacity="1" fill-rule="nonzero"/></g><path fill="#ffffff" d="M 135 185.625 L 185.621094 290.257812 L 0.015625 354.375 Z M 135 185.625 " fill-opacity="1" fill-rule="nonzero"/></svg>